# xmcd CD database file
#
# Track frame offsets:
#	150
#	75457
#	129515
#	190825
#	230340
#	245062
#	286997
#	301417
#
# Disc length: 4242 seconds
#
# Revision: 0
# Processed by: cddbd v1.5.1PL0 Copyright (c) Steve Scherf et al.
# Submitted via: CDex 1.51
#
DISCID=65109008
DTITLE=Änglaspel - Zanzibar Foxtrot
DYEAR=1996
DGENRE=Jazz
TTITLE0=Stodum
TTITLE1=Tempi, tempi
TTITLE2=Zanzibar Foxtrot
TTITLE3=Monte Parnasso (Nirvana Gonzales)
TTITLE4=Coda
TTITLE5=Zucchis Jump
TTITLE6=0-0
TTITLE7=Gonatt
EXTD=YEAR: 1996
EXTT0=
EXTT1=
EXTT2=
EXTT3=
EXTT4=
EXTT5=
EXTT6=
EXTT7=
PLAYORDER=
